<svg width="2500" height="1877" viewBox="0 0 2500 1877" fill="none" xmlns="http://www.w3.org/2000/svg">
<g clip-path="url(#clip0_1_7)">
<path d="M1250 1836.77L36.1593 422.078L446.594 26.198H2053.4L2463.84 422.078L1250 1836.77Z" fill="#3A57E8" stroke="black" stroke-width="52.3959"/>
<path d="M548.327 825.035L756.603 1071.21C870.934 965.89 1139.56 990.111 1223.07 1133.79C1454.9 1137.45 1650.94 1149.06 1727.38 1056.39C1749.02 1025.92 1755.49 992.379 1726.52 969.785C1589.69 876.441 1099.19 925.644 548.327 825.035ZM216.634 432.994C213.723 433.722 505.624 152.094 505.624 152.094H646.717C502.777 267.245 401.819 426.101 357.536 599.538L216.634 432.994ZM961.407 1299.98L1250 1635.93L1526.31 1314.28C1386.04 1347.22 1230.15 1363.5 961.407 1299.98Z" fill="white" stroke="black" stroke-width="46.5742" stroke-miterlimit="4.7"/>
<path d="M1674.26 152.094H1796.52C1799.21 196.758 1777.64 225.5 1764.12 239.671C1735.69 199.436 1690.76 161.554 1674.26 152.094Z" fill="white" stroke="black" stroke-width="46.5742" stroke-miterlimit="9.6"/>
<path d="M2010.48 759.406L2283.36 432.994L2085.53 237.313V457.553H1676.96C1667.58 244.552 1451.85 153.037 1200.76 155.86C970.091 158.457 777.521 216.552 759.514 344.94C741.93 417.465 821.807 539.696 1305.31 515.227C1690.12 506.718 1926.02 591.198 2010.48 759.406Z" fill="white" stroke="black" stroke-width="46.5742"/>
</g>
<defs>
<clipPath id="clip0_1_7">
<rect width="2500" height="1877" fill="white"/>
</clipPath>
</defs>
</svg>
